<svg id="Layer_1" height="512" viewBox="0 0 512 512" width="512" xmlns="http://www.w3.org/2000/svg" data-name="Layer 1"><g fill="#b0b5ca"><path d="m292.813 306h-30.813v-41h-12v41h-30.813a17.371 17.371 0 0 0 -17.187 17.358v35.642h12v-35.642a5.36 5.36 0 0 1 5.187-5.358h30.813v27h12v-27h30.813a5.36 5.36 0 0 1 5.187 5.358v35.642h12v-35.642a17.371 17.371 0 0 0 -17.187-17.358z"/><path d="m332.885 411.526h47.251v12h-47.251z"/><path d="m371.389 489.786h-3.282a23.56 23.56 0 0 1 -23.533-23.534 11.546 11.546 0 0 0 -11.533-11.533h-7.041v-12h7.045a23.559 23.559 0 0 1 23.533 23.533 11.547 11.547 0 0 0 11.533 11.534h3.282z"/><path d="m333.041 392.333h-7.323v-12h7.323a11.547 11.547 0 0 0 11.533-11.533 23.56 23.56 0 0 1 23.533-23.533h3.282v12h-3.282a11.546 11.546 0 0 0 -11.533 11.533 23.56 23.56 0 0 1 -23.533 23.533z"/></g><path d="m413.734 401.112a23.213 23.213 0 1 0 6.8 16.414 23.058 23.058 0 0 0 -6.8-16.414z" fill="#f3ce7d"/><path d="m404.988 467.372a23.213 23.213 0 1 0 6.8 16.414 23.06 23.06 0 0 0 -6.8-16.414z" fill="#4ca987"/><path d="m388.573 374.48a23.214 23.214 0 1 0 -16.414-6.8 23.059 23.059 0 0 0 16.414 6.8z" fill="#4ca987"/><path d="m131.864 411.526h47.251v12h-47.251z" fill="#b0b5ca"/><path d="m186 392.333h-7.045a23.56 23.56 0 0 1 -23.529-23.533 11.546 11.546 0 0 0 -11.533-11.533h-3.282v-12h3.282a23.56 23.56 0 0 1 23.533 23.533 11.547 11.547 0 0 0 11.533 11.534h7.041z" fill="#b0b5ca"/><path d="m143.893 489.786h-3.282v-12h3.282a11.547 11.547 0 0 0 11.533-11.534 23.559 23.559 0 0 1 23.533-23.533h7.323v12h-7.323a11.546 11.546 0 0 0 -11.533 11.533 23.56 23.56 0 0 1 -23.533 23.534z" fill="#b0b5ca"/><path d="m114.681 394.312a23.215 23.215 0 1 0 16.414 6.8 23.057 23.057 0 0 0 -16.414-6.8z" fill="#f3ce7d"/><path d="m123.427 374.48a23.214 23.214 0 1 0 -16.415-6.8 23.064 23.064 0 0 0 16.415 6.8z" fill="#4ca987"/><path d="m123.427 460.572a23.215 23.215 0 1 0 16.414 6.8 23.059 23.059 0 0 0 -16.414-6.8z" fill="#4ca987"/><circle cx="256" cy="417.455" fill="#b4b8e6" r="80.266"/><path d="m348.2 99.59c0 28.44-14.07 53.66-35.65 69.89a45.761 45.761 0 0 0 -18.36 33.49h-76.37a45.749 45.749 0 0 0 -18.57-33.71c-21.71-16.12-35.55-41.45-35.44-69.99.16-46.18 38.43-85.28 86.4-88.1 53.52-3.15 97.99 37.66 97.99 88.42z" fill="#6994fe"/><path d="m291.1 250.23v.41l-1.98 5.98a16.4 16.4 0 0 1 -15.58 11.27h-35.08a16.4 16.4 0 0 1 -15.58-11.27l-1.98-5.98v-.41z" fill="#6d7486"/><path d="m310.68 114.2-5.84 15.13-9.02-.26a44.634 44.634 0 0 1 -10.62 11.14l.66 9.03-14.86 6.5-6.24-6.5a50.027 50.027 0 0 1 -15.4.4l-5.84 6.77-15.13-5.84.27-9.03a44.847 44.847 0 0 1 -11.15-10.62l-9.02.67-6.51-14.87 6.5-6.23a50.041 50.041 0 0 1 -.39-15.4l-6.77-5.84 5.84-15.13 9.02.26a44.847 44.847 0 0 1 10.62-11.15l-.66-9.02 14.86-6.5 6.24 6.5a50.035 50.035 0 0 1 15.4-.4l5.84-6.77 15.13 5.84-.27 9.03a44.676 44.676 0 0 1 11.15 10.62l9.03-.67 6.5 14.87-6.5 6.23a49.725 49.725 0 0 1 .39 15.4z" fill="#e87187"/><path d="m256 72.35a29.375 29.375 0 1 1 -29.38 29.37 29.379 29.379 0 0 1 29.38-29.37z" fill="#a8475c"/><path d="m206.122 409.578a80.285 80.285 0 0 1 64.838-70.967c-2.326-.439-4.683-.8-7.083-1.035a80.266 80.266 0 1 0 7.163 158.724 80.26 80.26 0 0 1 -64.918-86.722z" fill="#9195b7"/><path d="m229.25 169.275c-21.71-16.12-35.55-41.457-35.44-70 .15-43.185 33.63-80.176 77.2-87.1a96.978 96.978 0 0 0 -20.8-1.007c-47.97 2.82-86.24 41.919-86.4 88.1-.11 28.54 13.73 53.884 35.44 70a46.46 46.46 0 0 1 18.57 33.732h30a46.46 46.46 0 0 0 -18.57-33.725z" fill="#5b80c9"/><path d="m212 220h88v31h-88z" fill="#978cac"/><path d="m212 220h30v31h-30z" fill="#787287"/><path d="m212 202h88v18h-88z" fill="#7e788e"/><path d="m212 202h30v18h-30z" fill="#5a5668"/><circle cx="256" cy="417.53" fill="#e87187" r="17.25"/><g id="_Group_4" data-name=" Group 4"><g id="_Group_5" data-name=" Group 5"><g id="_Group_6" data-name=" Group 6"><g id="_Compound_Path_" data-name=" Compound Path "><path d="m209.013 416.217a5.892 5.892 0 0 1 -.686-.039 6 6 0 0 1 -5.284-6.638 55.5 55.5 0 0 1 19.08-35.975c9.776-8.383 22.157-13.191 33.966-13.191 16.126 0 32.5 8.677 42.731 22.646a6 6 0 0 1 -9.681 7.091c-7.892-10.775-20.866-17.737-33.05-17.737-17.672 0-38.419 14.727-41.122 38.52a6 6 0 0 1 -5.954 5.323z" fill="#d4e1f4"/></g></g></g><g id="_Group_7" data-name=" Group 7"><g id="_Group_8" data-name=" Group 8"><g id="_Compound_Path_2" data-name=" Compound Path 2"><path d="m255.911 474.679c-16.126 0-32.5-8.678-42.731-22.647a6 6 0 0 1 9.681-7.091c7.892 10.775 20.866 17.738 33.05 17.738 17.672 0 38.419-14.728 41.122-38.521a6 6 0 0 1 11.924 1.355 55.5 55.5 0 0 1 -19.08 35.974c-9.777 8.384-22.157 13.192-33.966 13.192z" fill="#d4e1f4"/></g></g></g></g><g id="_Path_" fill="#d4e1f4" data-name=" Path "><path d="m167 33.521a6 6 0 0 1 -4.535-9.926c1.657-1.915 3.4-3.811 5.189-5.633a6 6 0 1 1 8.571 8.4c-1.614 1.646-3.19 3.357-4.684 5.085a5.99 5.99 0 0 1 -4.541 2.074z"/><path d="m143.743 134.954a6 6 0 0 1 -5.78-4.409 116.525 116.525 0 0 1 -4.157-31.381 115.146 115.146 0 0 1 16.125-58.172 6 6 0 1 1 10.326 6.113 103.128 103.128 0 0 0 -14.451 52.1 104.579 104.579 0 0 0 3.725 28.151 6.005 6.005 0 0 1 -5.788 7.6z"/></g><g id="_Path_3" data-name=" Path 3"><path d="m208.666 437.54a6 6 0 0 1 -5.018-2.709l-13.666-20.838a6 6 0 0 1 5.018-9.293h27.332a6 6 0 0 1 5.018 9.29l-13.666 20.838a6 6 0 0 1 -5.018 2.712z" fill="#e87187"/></g><g id="_Path_4" data-name=" Path 4"><path d="m317 430.349h-27.332a6 6 0 0 1 -5.018-9.29l13.666-20.838a6 6 0 0 1 10.036 0l13.666 20.838a6 6 0 0 1 -5.018 9.29z" fill="#e87187"/></g></svg>